<svg xmlns="http://www.w3.org/2000/svg" width="50" height="50" viewBox="0 0 50 50"><defs><style>.a{fill:#8af4f9;}.b{fill:#9ed3d3;}.c{fill:#ffe269;}.d{fill:#fecb2f;}</style></defs><g transform="translate(-12 -12)"><g transform="translate(32.049 18.818)"><path class="a" d="M14.976,38.071c-.319,0-.642-.009-.96-.028V36.61c.316.02.639.031.96.031.384,0,.771-.015,1.151-.044v1.435C15.745,38.058,15.358,38.071,14.976,38.071Zm-3.07-.291h0A15.645,15.645,0,0,1,7.18,36.058a14.75,14.75,0,0,1-3.774-3.015,13.482,13.482,0,0,1-2.5-4.011A12.678,12.678,0,0,1,0,24.32C0,14.629,5.323,5.7,14.24.434L14.976,0l.736.435C24.628,5.7,29.951,14.628,29.951,24.32a12.679,12.679,0,0,1-.889,4.67A13.466,13.466,0,0,1,26.6,32.976a14.726,14.726,0,0,1-3.713,3.014,15.623,15.623,0,0,1-4.654,1.754V36.28a14.154,14.154,0,0,0,4.094-1.616,13.209,13.209,0,0,0,3.255-2.694,12,12,0,0,0,2.149-3.529,11.3,11.3,0,0,0,.776-4.121,24.778,24.778,0,0,0-.97-6.869A25.509,25.509,0,0,0,24.8,11.235,27.371,27.371,0,0,0,20.527,5.9a29.347,29.347,0,0,0-5.551-4.234A29.345,29.345,0,0,0,9.424,5.9a27.369,27.369,0,0,0-4.271,5.337A25.508,25.508,0,0,0,2.41,17.451a24.779,24.779,0,0,0-.97,6.869,11.3,11.3,0,0,0,.792,4.162,12.019,12.019,0,0,0,2.192,3.555,13.236,13.236,0,0,0,3.316,2.7,14.181,14.181,0,0,0,4.165,1.588v1.458Z"/><path class="b" d="M10.521,29.7h0a11.938,11.938,0,0,1-7.47-3.335A9.945,9.945,0,0,1,0,19.265a21.068,21.068,0,0,1,.825-5.842A21.686,21.686,0,0,1,3.158,8.138,23.272,23.272,0,0,1,6.791,3.6,24.97,24.97,0,0,1,11.513,0a24.969,24.969,0,0,1,4.722,3.6,23.274,23.274,0,0,1,3.633,4.538A21.688,21.688,0,0,1,22.2,13.424a21.065,21.065,0,0,1,.825,5.842,9.944,9.944,0,0,1-3.01,7.063,11.924,11.924,0,0,1-7.386,3.364V26.444l4.53-4.5a1.044,1.044,0,0,0,0-1.482,1.061,1.061,0,0,0-1.492,0L12.63,23.481v-5.7l2.762-2.744a1.044,1.044,0,0,0,0-1.482,1.061,1.061,0,0,0-1.492,0l-1.27,1.262V11.342a1.055,1.055,0,0,0-2.11,0v3.6L9.126,13.56a1.06,1.06,0,0,0-1.492,0,1.043,1.043,0,0,0,0,1.482l2.886,2.867v5.7L7.358,20.462a1.055,1.055,0,0,0-1.8.742,1.037,1.037,0,0,0,.309.74l4.654,4.623V29.7Z" transform="translate(3.494 4.277)"/><path class="b" d="M134.02,164.544a1.051,1.051,0,0,1-1.055,1.048h0a1.051,1.051,0,0,1-1.054-1.048v-6.78a1.052,1.052,0,0,1,1.054-1.048h0a1.052,1.052,0,0,1,1.055,1.048Z" transform="translate(-117.894 -122.41)"/><rect class="b" width="2.11" height="1.336" transform="translate(14.016 33.985)"/></g><g transform="translate(12 12)"><g transform="translate(4.132 4.132)"><path class="c" d="M35.564,42.083a6.52,6.52,0,1,1,6.52-6.52A6.527,6.527,0,0,1,35.564,42.083Z" transform="translate(-28.334 -28.333)"/><path class="d" d="M33.774,27.963a5.81,5.81,0,1,1-5.809,5.81,5.816,5.816,0,0,1,5.809-5.81m0-1.42A7.23,7.23,0,1,0,41,33.773a7.23,7.23,0,0,0-7.23-7.23Z" transform="translate(-26.544 -26.543)"/></g><path class="d" d="M50.816,14.442a.723.723,0,0,1-.775.657h0a.723.723,0,0,1-.774-.657V12.657A.723.723,0,0,1,50.041,12h0a.723.723,0,0,1,.775.657Z" transform="translate(-38.68 -12)"/><path class="d" d="M50.816,83.521a.723.723,0,0,1-.775.657h0a.723.723,0,0,1-.774-.657V81.736a.723.723,0,0,1,.774-.657h0a.723.723,0,0,1,.775.657Z" transform="translate(-38.68 -61.454)"/><path class="d" d="M72.933,25.349a.723.723,0,0,1-1.012-.083h0a.723.723,0,0,1-.083-1.012L73.1,22.991a.722.722,0,0,1,1.012.083h0a.723.723,0,0,1,.083,1.012Z" transform="translate(-54.716 -19.747)"/><path class="d" d="M24.085,74.195a.722.722,0,0,1-1.012-.083h0A.722.722,0,0,1,22.99,73.1l1.262-1.262a.724.724,0,0,1,1.013.083h0a.723.723,0,0,1,.083,1.012Z" transform="translate(-19.746 -54.716)"/><path class="d" d="M81.736,50.816a.723.723,0,0,1-.657-.775h0a.723.723,0,0,1,.657-.774h1.785a.723.723,0,0,1,.657.774h0a.723.723,0,0,1-.657.775Z" transform="translate(-61.454 -38.68)"/><path class="d" d="M12.657,50.816A.723.723,0,0,1,12,50.041h0a.723.723,0,0,1,.657-.774h1.785a.722.722,0,0,1,.656.774h0a.723.723,0,0,1-.656.775Z" transform="translate(-12 -38.68)"/><path class="d" d="M71.838,72.933a.723.723,0,0,1,.083-1.012h0a.723.723,0,0,1,1.012-.083L74.2,73.1a.723.723,0,0,1-.083,1.012h0A.723.723,0,0,1,73.1,74.2Z" transform="translate(-54.716 -54.716)"/><path class="d" d="M22.99,24.087a.722.722,0,0,1,.083-1.012h0a.722.722,0,0,1,1.012-.083l1.263,1.262a.724.724,0,0,1-.084,1.012h0a.724.724,0,0,1-1.013.083Z" transform="translate(-19.746 -19.747)"/></g></g></svg>