<svg xmlns="http://www.w3.org/2000/svg" width="50" height="50" viewBox="0 0 50 50"><defs><style>.a{fill:#c9c9c9;}.b{fill:#f2f2f2;}</style></defs><g transform="translate(1748 208)"><g transform="translate(-1738.909 -175.045)"><path class="a" d="M-1713.727-87.522a1.172,1.172,0,0,1-1.136,1.2h0a1.172,1.172,0,0,1-1.136-1.2V-90.8a1.172,1.172,0,0,1,1.136-1.2h0a1.172,1.172,0,0,1,1.136,1.2Z" transform="translate(1716 92)"/><path class="a" d="M-1609.727-87.522a1.172,1.172,0,0,1-1.136,1.2h0a1.172,1.172,0,0,1-1.136-1.2V-90.8a1.172,1.172,0,0,1,1.136-1.2h0a1.172,1.172,0,0,1,1.136,1.2Z" transform="translate(1641.545 92)"/><path class="a" d="M-1685.727-47.522a1.172,1.172,0,0,1-1.136,1.2h0a1.171,1.171,0,0,1-1.136-1.2V-50.8a1.171,1.171,0,0,1,1.136-1.2h0a1.172,1.172,0,0,1,1.136,1.2Z" transform="translate(1695.955 63.364)"/><path class="a" d="M-1637.727-47.522a1.172,1.172,0,0,1-1.137,1.2h0a1.172,1.172,0,0,1-1.136-1.2V-50.8a1.172,1.172,0,0,1,1.136-1.2h0a1.172,1.172,0,0,1,1.137,1.2Z" transform="translate(1661.591 63.364)"/><path class="a" d="M-1661.727-79.522a1.172,1.172,0,0,1-1.136,1.2h0a1.171,1.171,0,0,1-1.136-1.2V-82.8a1.171,1.171,0,0,1,1.136-1.2h0a1.172,1.172,0,0,1,1.136,1.2Z" transform="translate(1678.773 86.273)"/></g><g transform="translate(-1748 -208)"><path class="b" d="M-1702.745-178.511c-.105,0-.21,0-.314-.009h-10.979c-.118,0-.236.009-.355.009h-21.591a9.528,9.528,0,0,1-9.517-9.517,9.468,9.468,0,0,1,9.225-9.509l.55-.017.121-.536a9.46,9.46,0,0,1,9.279-7.409,9.5,9.5,0,0,1,9.506,9.086l.066,1.469,1.11-.965a6.669,6.669,0,0,1,4.375-1.636,6.684,6.684,0,0,1,6.676,6.676l0,.092-.01.857.844-.148a5.879,5.879,0,0,1,1.016-.09,5.83,5.83,0,0,1,5.824,5.824,5.843,5.843,0,0,1-5.386,5.805l-.144.011C-1702.548-178.514-1702.646-178.511-1702.745-178.511Z" transform="translate(1746.21 206.21)"/><path class="a" d="M-1728.114-206.58a8.787,8.787,0,0,1,8.8,8.408l.131,2.938,2.22-1.929a5.96,5.96,0,0,1,3.909-1.462,5.971,5.971,0,0,1,5.966,5.957v.016c0,.025,0,.051,0,.076l-.021,1.713,1.688-.3a5.167,5.167,0,0,1,.893-.08,5.12,5.12,0,0,1,5.114,5.114,5.13,5.13,0,0,1-4.729,5.1l-.1.008h-.009c-.092,0-.184.008-.277.008s-.185,0-.276-.008l-.038,0h-11.007c-.108,0-.217.009-.326.009h-21.591a8.817,8.817,0,0,1-8.806-8.807,8.754,8.754,0,0,1,2.491-6.136,8.761,8.761,0,0,1,6.045-2.664l1.1-.033.243-1.073a8.845,8.845,0,0,1,3.055-4.9,8.7,8.7,0,0,1,5.532-1.956m0-1.42a10.229,10.229,0,0,0-9.972,7.962A10.225,10.225,0,0,0-1748-189.818a10.227,10.227,0,0,0,10.227,10.228h21.591c.129,0,.256,0,.384-.01h10.912q.175.009.352.01c.118,0,.236,0,.352-.01h.138v-.011a6.533,6.533,0,0,0,6.044-6.514,6.534,6.534,0,0,0-6.534-6.534,6.594,6.594,0,0,0-1.139.1c0-.034,0-.067,0-.1a7.387,7.387,0,0,0-7.386-7.387,7.355,7.355,0,0,0-4.841,1.811A10.227,10.227,0,0,0-1728.114-208Z" transform="translate(1748 208)"/></g></g></svg>