<svg xmlns="http://www.w3.org/2000/svg" width="50" height="50" viewBox="0 0 50 50"><defs><style>.a{fill:#ffe269;}.b{fill:#fecb2f;}.c{fill:#f2f2f2;}.d{fill:#c9c9c9;}</style></defs><g transform="translate(1968 208)"><g transform="translate(-1961.182 -208)"><g transform="translate(7.851 7.852)"><path class="a" d="M-1900.834-151.8a13.044,13.044,0,0,1-13.029-13.029,13.043,13.043,0,0,1,13.029-13.029,13.044,13.044,0,0,1,13.029,13.029A13.044,13.044,0,0,1-1900.834-151.8Z" transform="translate(1914.573 178.572)"/><path class="b" d="M-1902.624-178.942a12.333,12.333,0,0,1,12.319,12.319,12.333,12.333,0,0,1-12.319,12.319,12.333,12.333,0,0,1-12.319-12.319,12.333,12.333,0,0,1,12.319-12.319m0-1.42a13.739,13.739,0,0,0-13.739,13.739,13.739,13.739,0,0,0,13.739,13.739,13.739,13.739,0,0,0,13.74-13.739,13.739,13.739,0,0,0-13.74-13.739Z" transform="translate(1916.363 180.362)"/></g><path class="b" d="M-1870.238-203.359a1.374,1.374,0,0,1-1.472,1.248h0a1.374,1.374,0,0,1-1.472-1.248v-3.392A1.374,1.374,0,0,1-1871.71-208h0a1.374,1.374,0,0,1,1.472,1.249Z" transform="translate(1893.301 208)"/><path class="b" d="M-1870.238-72.087a1.374,1.374,0,0,1-1.472,1.248h0a1.374,1.374,0,0,1-1.472-1.248v-3.392a1.374,1.374,0,0,1,1.472-1.248h0a1.374,1.374,0,0,1,1.472,1.248Z" transform="translate(1893.301 114.02)"/><path class="b" d="M-1828.209-182.633a1.374,1.374,0,0,1-1.924-.158h0a1.375,1.375,0,0,1-.158-1.924l2.4-2.4a1.374,1.374,0,0,1,1.924.158h0a1.374,1.374,0,0,1,.158,1.924Z" transform="translate(1862.826 193.279)"/><path class="b" d="M-1921.032-89.81a1.374,1.374,0,0,1-1.924-.158h0a1.374,1.374,0,0,1-.158-1.924l2.4-2.4a1.374,1.374,0,0,1,1.923.158h0a1.374,1.374,0,0,1,.158,1.924Z" transform="translate(1929.28 126.826)"/><path class="b" d="M-1811.48-134.238a1.374,1.374,0,0,1-1.248-1.472h0a1.374,1.374,0,0,1,1.248-1.472h3.392a1.374,1.374,0,0,1,1.248,1.472h0a1.374,1.374,0,0,1-1.248,1.472Z" transform="translate(1850.021 157.301)"/><path class="b" d="M-1942.752-134.238A1.374,1.374,0,0,1-1944-135.71h0a1.374,1.374,0,0,1,1.248-1.472h3.392a1.374,1.374,0,0,1,1.248,1.472h0a1.374,1.374,0,0,1-1.248,1.472Z" transform="translate(1944 157.301)"/><path class="b" d="M-1830.29-92.208a1.375,1.375,0,0,1,.158-1.924h0a1.375,1.375,0,0,1,1.924-.158l2.4,2.4a1.375,1.375,0,0,1-.158,1.924h0a1.375,1.375,0,0,1-1.924.158Z" transform="translate(1862.826 126.825)"/><path class="b" d="M-1923.114-185.032a1.374,1.374,0,0,1,.158-1.924h0a1.374,1.374,0,0,1,1.924-.158l2.4,2.4a1.375,1.375,0,0,1-.159,1.924h0a1.374,1.374,0,0,1-1.923.158Z" transform="translate(1929.28 193.279)"/></g><g transform="translate(-1968 -186.409)"><path class="c" d="M-1922.745-102.511c-.105,0-.21,0-.314-.009h-10.979c-.118,0-.236.009-.355.009h-21.591a9.528,9.528,0,0,1-9.517-9.517,9.468,9.468,0,0,1,9.225-9.509l.55-.017.121-.536a9.46,9.46,0,0,1,9.28-7.409,9.5,9.5,0,0,1,9.506,9.086l.066,1.469,1.11-.965a6.669,6.669,0,0,1,4.375-1.636,6.684,6.684,0,0,1,6.676,6.676l0,.092-.01.857.844-.148a5.878,5.878,0,0,1,1.016-.09,5.83,5.83,0,0,1,5.824,5.824,5.843,5.843,0,0,1-5.386,5.805l-.144.011C-1922.549-102.514-1922.646-102.511-1922.745-102.511Z" transform="translate(1966.21 130.21)"/><path class="d" d="M-1948.114-130.58a8.787,8.787,0,0,1,8.8,8.408l.131,2.938,2.22-1.929a5.959,5.959,0,0,1,3.909-1.462,5.971,5.971,0,0,1,5.966,5.957v.016c0,.025,0,.051,0,.076l-.021,1.713,1.688-.3a5.167,5.167,0,0,1,.893-.08,5.12,5.12,0,0,1,5.114,5.114,5.13,5.13,0,0,1-4.729,5.1l-.1.008h-.009c-.092,0-.184.008-.277.008s-.185,0-.276-.008l-.038,0h-11.007c-.108,0-.217.009-.327.009h-21.591a8.817,8.817,0,0,1-8.806-8.807,8.754,8.754,0,0,1,2.491-6.136,8.761,8.761,0,0,1,6.045-2.664l1.1-.033.243-1.073a8.842,8.842,0,0,1,3.055-4.9,8.7,8.7,0,0,1,5.532-1.956m0-1.42a10.229,10.229,0,0,0-9.972,7.962A10.225,10.225,0,0,0-1968-113.819a10.227,10.227,0,0,0,10.227,10.228h21.591c.129,0,.256,0,.384-.01h10.912q.175.009.352.01t.352-.01h.138v-.01a6.533,6.533,0,0,0,6.044-6.514,6.534,6.534,0,0,0-6.534-6.534,6.594,6.594,0,0,0-1.139.1c0-.034,0-.067,0-.1a7.387,7.387,0,0,0-7.386-7.387,7.355,7.355,0,0,0-4.841,1.811A10.227,10.227,0,0,0-1948.114-132Z" transform="translate(1968 132)"/></g></g></svg>