<svg xmlns="http://www.w3.org/2000/svg" width="50" height="50" viewBox="0 0 50 50"><defs><style>.a{fill:#ffe269;}.b{fill:#fecb2f;}.c{fill:#fff;}.d{fill:#c9c9c9;}</style></defs><g transform="translate(2188 208)"><g transform="translate(-2181.182 -208)"><g transform="translate(7.851 7.852)"><path class="a" d="M-2120.834-151.8a13.044,13.044,0,0,1-13.029-13.029,13.043,13.043,0,0,1,13.029-13.029,13.044,13.044,0,0,1,13.029,13.029A13.044,13.044,0,0,1-2120.834-151.8Z" transform="translate(2134.573 178.572)"/><path class="b" d="M-2122.624-178.942a12.333,12.333,0,0,1,12.319,12.319,12.333,12.333,0,0,1-12.319,12.319,12.333,12.333,0,0,1-12.319-12.319,12.333,12.333,0,0,1,12.319-12.319m0-1.42a13.739,13.739,0,0,0-13.74,13.739,13.739,13.739,0,0,0,13.74,13.739,13.739,13.739,0,0,0,13.74-13.739,13.739,13.739,0,0,0-13.74-13.739Z" transform="translate(2136.363 180.362)"/></g><path class="b" d="M-2090.238-203.359a1.374,1.374,0,0,1-1.472,1.248h0a1.374,1.374,0,0,1-1.472-1.248v-3.392A1.374,1.374,0,0,1-2091.71-208h0a1.374,1.374,0,0,1,1.472,1.249Z" transform="translate(2113.301 208)"/><path class="b" d="M-2090.238-72.087a1.374,1.374,0,0,1-1.472,1.248h0a1.374,1.374,0,0,1-1.472-1.248v-3.392a1.374,1.374,0,0,1,1.472-1.248h0a1.374,1.374,0,0,1,1.472,1.248Z" transform="translate(2113.301 114.02)"/><path class="b" d="M-2048.209-182.633a1.374,1.374,0,0,1-1.924-.158h0a1.375,1.375,0,0,1-.158-1.924l2.4-2.4a1.374,1.374,0,0,1,1.924.158h0a1.374,1.374,0,0,1,.158,1.924Z" transform="translate(2082.826 193.279)"/><path class="b" d="M-2141.032-89.81a1.374,1.374,0,0,1-1.924-.158h0a1.375,1.375,0,0,1-.158-1.924l2.4-2.4a1.374,1.374,0,0,1,1.923.158h0a1.374,1.374,0,0,1,.158,1.924Z" transform="translate(2149.28 126.826)"/><path class="b" d="M-2031.48-134.238a1.374,1.374,0,0,1-1.248-1.472h0a1.374,1.374,0,0,1,1.248-1.472h3.392a1.374,1.374,0,0,1,1.248,1.472h0a1.374,1.374,0,0,1-1.248,1.472Z" transform="translate(2070.021 157.301)"/><path class="b" d="M-2162.751-134.238A1.374,1.374,0,0,1-2164-135.71h0a1.374,1.374,0,0,1,1.249-1.472h3.392a1.374,1.374,0,0,1,1.248,1.472h0a1.374,1.374,0,0,1-1.248,1.472Z" transform="translate(2164 157.301)"/><path class="b" d="M-2050.29-92.208a1.375,1.375,0,0,1,.158-1.924h0a1.375,1.375,0,0,1,1.924-.158l2.4,2.4a1.375,1.375,0,0,1-.158,1.924h0a1.375,1.375,0,0,1-1.924.158Z" transform="translate(2082.826 126.826)"/><path class="b" d="M-2143.115-185.032a1.374,1.374,0,0,1,.158-1.924h0a1.374,1.374,0,0,1,1.924-.158l2.4,2.4a1.375,1.375,0,0,1-.159,1.924h0a1.374,1.374,0,0,1-1.923.158Z" transform="translate(2149.28 193.279)"/></g><g transform="translate(-2188 -181.864)"><path class="c" d="M-2177.583-91.057l-.168,0a7.833,7.833,0,0,1-7.749-7.811,7.821,7.821,0,0,1,7.812-7.812l.749.016.118-.581a7.832,7.832,0,0,1,7.656-6.253,7.813,7.813,0,0,1,7.8,7.368l.043.775.768-.111a7.316,7.316,0,0,1,1.048-.077,7.252,7.252,0,0,1,7.244,7.244,7.253,7.253,0,0,1-7.244,7.245Z" transform="translate(2186.21 114.21)"/><path class="d" d="M-2170.955-114.58a7.1,7.1,0,0,1,7.09,6.7l.087,1.549,1.535-.222a6.613,6.613,0,0,1,.947-.069,6.541,6.541,0,0,1,6.534,6.534,6.542,6.542,0,0,1-6.534,6.534h-18.021l-.219,0a7.121,7.121,0,0,1-7.044-7.1,7.11,7.11,0,0,1,7.1-7.1h.055l.088,0,1.185.023.235-1.162a7.119,7.119,0,0,1,6.96-5.684m0-1.42a8.525,8.525,0,0,0-8.353,6.822c-.057,0-.114,0-.17,0a8.523,8.523,0,0,0-8.522,8.522,8.522,8.522,0,0,0,8.453,8.521v0h18.252a7.954,7.954,0,0,0,7.955-7.955,7.954,7.954,0,0,0-7.955-7.954,8.047,8.047,0,0,0-1.151.084,8.523,8.523,0,0,0-8.508-8.038Z" transform="translate(2188 116)"/></g></g></svg>