<svg xmlns="http://www.w3.org/2000/svg" width="50" height="50" viewBox="0 0 50 50"><defs><style>.a{fill:#ffe269;}.b{fill:#fecb2f;}</style></defs><g transform="translate(2408 208)"><g transform="translate(-2408 -208)"><g transform="translate(9.091 9.091)"><circle class="a" cx="15.199" cy="15.199" r="15.199" transform="translate(0.71 0.71)"/><path class="b" d="M-2360.091-174.58a14.5,14.5,0,0,1,14.489,14.489,14.5,14.5,0,0,1-14.489,14.489,14.5,14.5,0,0,1-14.489-14.489,14.5,14.5,0,0,1,14.489-14.489m0-1.42A15.909,15.909,0,0,0-2376-160.091a15.909,15.909,0,0,0,15.909,15.909,15.909,15.909,0,0,0,15.909-15.909A15.909,15.909,0,0,0-2360.091-176Z" transform="translate(2376 176)"/></g><path class="b" d="M-2322.591-202.627a1.591,1.591,0,0,1-1.7,1.445h0a1.591,1.591,0,0,1-1.7-1.445v-3.928a1.591,1.591,0,0,1,1.7-1.445h0a1.591,1.591,0,0,1,1.7,1.445Z" transform="translate(2349.296 208)"/><path class="b" d="M-2322.591-50.627a1.591,1.591,0,0,1-1.7,1.445h0a1.591,1.591,0,0,1-1.7-1.445v-3.928A1.591,1.591,0,0,1-2324.3-56h0a1.591,1.591,0,0,1,1.7,1.445Z" transform="translate(2349.296 99.182)"/><path class="b" d="M-2273.925-178.628a1.591,1.591,0,0,1-2.227-.184h0a1.591,1.591,0,0,1-.184-2.227l2.778-2.778a1.591,1.591,0,0,1,2.227.183h0a1.592,1.592,0,0,1,.184,2.227Z" transform="translate(2314.009 190.955)"/><path class="b" d="M-2381.406-71.148a1.591,1.591,0,0,1-2.227-.183h0a1.591,1.591,0,0,1-.183-2.227l2.777-2.778a1.591,1.591,0,0,1,2.227.184h0a1.591,1.591,0,0,1,.183,2.227Z" transform="translate(2390.955 114.009)"/><path class="b" d="M-2254.555-122.591a1.591,1.591,0,0,1-1.445-1.7h0a1.591,1.591,0,0,1,1.445-1.7h3.928a1.591,1.591,0,0,1,1.445,1.7h0a1.591,1.591,0,0,1-1.445,1.7Z" transform="translate(2299.182 149.295)"/><path class="b" d="M-2406.555-122.591a1.591,1.591,0,0,1-1.445-1.7h0a1.591,1.591,0,0,1,1.445-1.7h3.928a1.59,1.59,0,0,1,1.445,1.7h0a1.591,1.591,0,0,1-1.445,1.7Z" transform="translate(2408 149.295)"/><path class="b" d="M-2276.335-73.925a1.591,1.591,0,0,1,.184-2.227h0a1.591,1.591,0,0,1,2.227-.184l2.778,2.778a1.592,1.592,0,0,1-.184,2.227h0a1.592,1.592,0,0,1-2.228.184Z" transform="translate(2314.009 114.009)"/><path class="b" d="M-2383.816-181.4a1.592,1.592,0,0,1,.183-2.228h0a1.591,1.591,0,0,1,2.227-.183l2.777,2.778a1.591,1.591,0,0,1-.183,2.227h0a1.591,1.591,0,0,1-2.228.184Z" transform="translate(2390.955 190.955)"/></g></g></svg>