<svg xmlns="http://www.w3.org/2000/svg" width="486.361" height="60.77" viewBox="0 0 486.361 60.77">
  <g id="Grupo_2291" data-name="Grupo 2291" transform="translate(-78.238 -1194.398)">
    <g id="Grupo_2290" data-name="Grupo 2290">
      <g id="Grupo_1541" data-name="Grupo 1541" transform="translate(78.238 1194.398)">
        <circle id="Elipse_361" data-name="Elipse 361" cx="28.218" cy="28.218" r="28.218" transform="translate(1.024 1.127)" fill="none"/>
        <path id="Caminho_1184" data-name="Caminho 1184" d="M43.242,13.7A29.371,29.371,0,1,0,72.484,43.045,29.287,29.287,0,0,0,43.242,13.7Zm0,55.719A26.323,26.323,0,1,1,69.565,43.1h0v.051A26.3,26.3,0,0,1,43.242,69.419Z" transform="translate(-14 -13.7)" fill="#10434f"/>
        <path id="Caminho_1185" data-name="Caminho 1185" d="M61.958,51.7,61.6,55.746s22.072,1.844,26.118,3.022C80.139,55.387,68.821,52.007,61.958,51.7Z" transform="translate(-37.223 -32.239)" fill="#10434f"/>
        <path id="Caminho_1186" data-name="Caminho 1186" d="M76.151,47a23.36,23.36,0,0,1-.051,2.509,109.2,109.2,0,0,1,15.927,5.07C85.83,51.046,82.041,48.28,76.151,47Z" transform="translate(-44.297 -29.946)" fill="#10434f"/>
        <path id="Caminho_1187" data-name="Caminho 1187" d="M79.881,68.865l-.1-.563a61.8,61.8,0,0,0-17.054,6.35c-1.28-2.561-2.509-4.455-3.073-5.377a49.2,49.2,0,0,1,19.973-2.817l.2-1.229s-31.956-5.07-40.714-3.073a83.911,83.911,0,0,1,8.092,10.55c.256.461.512.922.768,1.434A52.272,52.272,0,0,0,34.2,85.509l.461.358A51.751,51.751,0,0,1,48.232,74.6a68.482,68.482,0,0,1,3.431,7.887A44.668,44.668,0,0,0,43.828,91.6l.512.307A45.72,45.72,0,0,1,51.868,83.2a68.342,68.342,0,0,1,2.561,9.935l.563-.1a65.4,65.4,0,0,0-2.663-10.294A57.687,57.687,0,0,1,62.52,75.42a45.649,45.649,0,0,1,4.507,13.674l.563-.1a47.5,47.5,0,0,0-4.609-13.879A63.256,63.256,0,0,1,79.881,68.865ZM52.329,81.975l-.2.2a60.449,60.449,0,0,0-3.482-7.887,63.382,63.382,0,0,1,10.447-4.814,48.681,48.681,0,0,1,3.124,5.429A59.121,59.121,0,0,0,52.329,81.975Z" transform="translate(-23.855 -37.113)" fill="#10434f"/>
        <path id="Caminho_1188" data-name="Caminho 1188" d="M23.6,79.767a6.762,6.762,0,0,0,2.612-.256,6.935,6.935,0,0,1,3.738-.666,8.748,8.748,0,0,0-2.714,1.28A7.814,7.814,0,0,1,23.6,79.767Z" transform="translate(-18.684 -45.455)" fill="#10434f"/>
        <path id="Caminho_1189" data-name="Caminho 1189" d="M34.1,88.09a8.813,8.813,0,0,0,3.431-1.383A10.1,10.1,0,0,1,42.4,84.3c-2.3,1.332-2.407,2.356-3.226,2.817A12.011,12.011,0,0,1,34.1,88.09Z" transform="translate(-23.806 -48.144)" fill="#10434f"/>
        <path id="Caminho_1190" data-name="Caminho 1190" d="M26.4,83.338A11.742,11.742,0,0,0,29.831,81.7c1.28-1.024,1.844-1.895,3.841-2.561a10.793,10.793,0,0,1,5.889-.461,9.534,9.534,0,0,0-4.609,1.229c-1.792,1.178-1.536,1.69-3.943,2.612A14.136,14.136,0,0,1,26.4,83.338Z" transform="translate(-20.05 -45.287)" fill="#10434f"/>
      </g>
      <g id="Grupo_2289" data-name="Grupo 2289">
        <path id="Caminho_696" d="M20117.1,21310.9h11.469c13.109,0,20.641,7.27,20.641,20.125,0,12.6-7.273,19.516-20.691,19.516H20117.1Zm10.754,33.082c9.988,0,14.184-3.941,14.184-13.215,0-9.164-4.2-13.312-13.57-13.312h-4.25v26.527Z" transform="translate(-19969.258 -20107.352)" fill="#10434f"/>
        <path id="Caminho_697" d="M20187.3,21346.943c0-7.936,5.326-14.543,14.031-14.543,8.656,0,14.033,6.607,14.033,14.543,0,7.887-5.377,14.6-14.033,14.6C20192.627,21361.543,20187.3,21354.883,20187.3,21346.943Zm21.252,0c0-4.609-2.051-8.6-7.221-8.6s-7.221,3.992-7.221,8.6c0,4.559,2.049,8.66,7.221,8.66S20208.553,21351.5,20208.553,21346.943Z" transform="translate(-20003.506 -20117.84)" fill="#10434f"/>
        <path id="Caminho_698" d="M20247.9,21347.145c0-7.371,4.352-14.645,13.523-14.645,5.582,0,9.934,2.668,12.086,8.242l-6.453,2.566c-.715-2.973-2.816-4.816-5.633-4.816-4.711,0-6.555,4.246-6.555,8.707s1.742,8.5,6.555,8.5a5.852,5.852,0,0,0,5.633-4.711l6.2,2.406a12.018,12.018,0,0,1-11.777,8.3C20252.355,21361.59,20247.9,21354.523,20247.9,21347.145Z" transform="translate(-20033.068 -20117.891)" fill="#10434f"/>
        <path id="Caminho_699" d="M20307.6,21310.9h6.813v22.945l10.3-11.371h9.168l-10.449,10.855,11.621,17.156h-8.137l-8.2-12.957-4.3,4.762v8.2h-6.812Z" transform="translate(-20062.195 -20107.352)" fill="#10434f"/>
        <path id="Caminho_2075" data-name="Caminho 2075" d="M14.039,10.891q-5.785,0-8.958-3.561T1.909-2.746q0-6.685,3.221-10.331t9.177-3.646a18.21,18.21,0,0,1,3.841.413,12.652,12.652,0,0,1,3.014.972l-1.24,3.428A18.974,18.974,0,0,0,17-12.8a13.025,13.025,0,0,0-2.8-.352Q6.09-13.15,6.09-2.795q0,4.91,1.981,7.536a6.893,6.893,0,0,0,5.871,2.625,17.949,17.949,0,0,0,6.831-1.434V9.505A14.558,14.558,0,0,1,14.039,10.891ZM50.448-2.941q0,6.515-3.282,10.173T38.1,10.891a12.009,12.009,0,0,1-6.345-1.677A11.07,11.07,0,0,1,27.476,4.4a16.774,16.774,0,0,1-1.507-7.341q0-6.515,3.257-10.149t9.043-3.634A11.271,11.271,0,0,1,47.154-13Q50.448-9.285,50.448-2.941Zm-20.3,0q0,5.1,2.042,7.779a7.088,7.088,0,0,0,6,2.674A7.135,7.135,0,0,0,44.212,4.85q2.054-2.662,2.054-7.791,0-5.081-2.054-7.718A7.217,7.217,0,0,0,38.147-13.3a7.1,7.1,0,0,0-5.98,2.6Q30.15-8.094,30.15-2.941ZM91.839,10.4V-6.927A7.194,7.194,0,0,0,90.478-11.7a5.265,5.265,0,0,0-4.23-1.592q-3.768,0-5.567,2.163t-1.8,6.661V10.4H74.847V-6.927A7.194,7.194,0,0,0,73.486-11.7,5.3,5.3,0,0,0,69.232-13.3q-3.792,0-5.555,2.273T61.915-3.573V10.4H57.88V-16.238h3.282l.656,3.646h.194a7.931,7.931,0,0,1,3.221-3.039,9.84,9.84,0,0,1,4.655-1.094q6.247,0,8.168,4.521h.194A8.5,8.5,0,0,1,81.7-15.508a10.711,10.711,0,0,1,5.153-1.215q4.521,0,6.77,2.321t2.249,7.426V10.4Zm25.1.486a11.53,11.53,0,0,1-4.752-.96,8.937,8.937,0,0,1-3.61-2.954h-.292a35.737,35.737,0,0,1,.292,4.424V22.365h-4.035v-38.6h3.282l.559,3.646h.194a9.371,9.371,0,0,1,3.622-3.16,11.011,11.011,0,0,1,4.74-.972,9.847,9.847,0,0,1,8.18,3.622Q128-9.48,128-2.941q0,6.563-2.929,10.2A9.864,9.864,0,0,1,116.944,10.891ZM116.361-13.3q-4.084,0-5.907,2.261t-1.872,7.2v.9q0,5.615,1.872,8.034t6,2.419a6.243,6.243,0,0,0,5.409-2.8,13.256,13.256,0,0,0,1.957-7.706q0-4.983-1.957-7.645A6.436,6.436,0,0,0,116.361-13.3ZM158.409-2.941q0,6.515-3.282,10.173t-9.067,3.658a12.009,12.009,0,0,1-6.345-1.677A11.07,11.07,0,0,1,135.437,4.4a16.774,16.774,0,0,1-1.507-7.341q0-6.515,3.257-10.149t9.043-3.634A11.271,11.271,0,0,1,155.115-13Q158.409-9.285,158.409-2.941Zm-20.3,0q0,5.1,2.042,7.779a7.088,7.088,0,0,0,6,2.674,7.135,7.135,0,0,0,6.016-2.662q2.054-2.662,2.054-7.791,0-5.081-2.054-7.718a7.217,7.217,0,0,0-6.065-2.638,7.1,7.1,0,0,0-5.98,2.6Q138.111-8.094,138.111-2.941ZM184.072,10.4V-6.83a6.954,6.954,0,0,0-1.483-4.862,6.041,6.041,0,0,0-4.643-1.6q-4.181,0-6.126,2.261t-1.945,7.463V10.4h-4.035V-16.238h3.282l.656,3.646h.194a8.24,8.24,0,0,1,3.476-3.051,11.294,11.294,0,0,1,4.983-1.082q4.813,0,7.244,2.321t2.431,7.426V10.4Zm23.938.486q-5.907,0-9.322-3.6T195.273-2.7q0-6.442,3.172-10.234a10.538,10.538,0,0,1,8.52-3.792,10.047,10.047,0,0,1,7.925,3.294,12.624,12.624,0,0,1,2.917,8.69v2.552H199.454q.122,4.692,2.37,7.122a8.2,8.2,0,0,0,6.332,2.431,21.459,21.459,0,0,0,8.508-1.8v3.6a21.354,21.354,0,0,1-4.047,1.325A22.746,22.746,0,0,1,208.01,10.891Zm-1.094-24.236a6.59,6.59,0,0,0-5.117,2.091,9.636,9.636,0,0,0-2.249,5.785H213.48a8.872,8.872,0,0,0-1.7-5.846A5.989,5.989,0,0,0,206.917-13.345Zm36.36,23.75V-6.83a6.954,6.954,0,0,0-1.483-4.862,6.041,6.041,0,0,0-4.643-1.6q-4.181,0-6.126,2.261T229.08-3.573V10.4h-4.035V-16.238h3.282l.656,3.646h.194a8.239,8.239,0,0,1,3.476-3.051,11.294,11.294,0,0,1,4.983-1.082q4.813,0,7.244,2.321t2.431,7.426V10.4Zm21.288-2.844a13.182,13.182,0,0,0,2.066-.158,13.375,13.375,0,0,0,1.58-.328v3.087a7.377,7.377,0,0,1-1.933.523,14.512,14.512,0,0,1-2.3.207q-7.73,0-7.73-8.143V-13.1h-3.816v-1.945l3.816-1.677,1.7-5.688h2.334v6.174h7.73V-13.1h-7.73V2.577a5.394,5.394,0,0,0,1.142,3.695A3.976,3.976,0,0,0,264.565,7.561Zm26.515-4.424a6.674,6.674,0,0,1-2.771,5.737q-2.771,2.018-7.779,2.018-5.3,0-8.265-1.677V5.47A19.987,19.987,0,0,0,276.385,7a17.206,17.206,0,0,0,4.242.559,9.62,9.62,0,0,0,4.862-1.009,3.336,3.336,0,0,0,1.7-3.075A3.338,3.338,0,0,0,285.841.815,21.223,21.223,0,0,0,280.578-1.8a28.539,28.539,0,0,1-5.287-2.419,7.223,7.223,0,0,1-2.334-2.346,6.118,6.118,0,0,1-.766-3.136,5.978,5.978,0,0,1,2.65-5.141,12.346,12.346,0,0,1,7.268-1.884,21.267,21.267,0,0,1,8.411,1.75l-1.434,3.282a19.306,19.306,0,0,0-7.268-1.653,8.362,8.362,0,0,0-4.327.9,2.781,2.781,0,0,0-1.459,2.479,3.02,3.02,0,0,0,.547,1.823,5.4,5.4,0,0,0,1.762,1.434,39.385,39.385,0,0,0,4.667,1.969q4.74,1.726,6.405,3.476A6.13,6.13,0,0,1,291.079,3.136Z" transform="translate(273.521 1232.804)" fill="#10434f"/>
      </g>
    </g>
  </g>
</svg>
