<svg xmlns="http://www.w3.org/2000/svg" width="9.058" height="14.493" viewBox="0 0 9.058 14.493">
  <path id="hook" d="M104.991,2.834,104.085.569A.906.906,0,0,0,103.244,0H97.809a.906.906,0,0,0-.841.569l-.906,2.265a.9.9,0,0,0,0,.673l.906,2.265a.906.906,0,0,0,.841.569h.453a.906.906,0,0,0,.906.906h.453v.348a2.777,2.777,0,0,0,1.5,2.506,1.351,1.351,0,0,1,.763,1.222,1.4,1.4,0,0,1-1.359,1.359,1.36,1.36,0,0,1-1.358-1.359.906.906,0,0,0-1.812,0,3.174,3.174,0,0,0,3.17,3.17,3.213,3.213,0,0,0,3.171-3.171,3.151,3.151,0,0,0-1.78-2.849.959.959,0,0,1-.485-.879V7.247h.453a.906.906,0,0,0,.906-.906h.453a.906.906,0,0,0,.841-.569l.906-2.265A.9.9,0,0,0,104.991,2.834ZM98.413,4.982h-.955l1.208-3.623h.955Zm1.987,0h-.955l1.208-3.623h.955Zm1.987,0h-.955l1.208-3.623h.955Z" transform="translate(-95.998)" fill="#10434f"/>
</svg>
