<svg
     width="211.66" height="50.993" viewBox="0 0 211.66 50.993">
    <defs>
        <style>.a{fill:#10424d;}.b{fill:#7ab3a2;}.c{fill:#f4f0ea;}</style>
    </defs>
    <g transform="translate(-14 -13.7)">
        <g transform="translate(14 13.7)">
            <circle class="a" cx="24.496" cy="24.496" r="24.496" transform="translate(0.889 0.978)"/>
            <path class="b" d="M39.385,13.7A25.5,25.5,0,1,0,64.77,39.174,25.424,25.424,0,0,0,39.385,13.7Zm0,48.37A22.851,22.851,0,1,1,62.236,39.218h0v.044A22.834,22.834,0,0,1,39.385,62.07Z" transform="translate(-14 -13.7)"/>
            <path class="b" d="M61.911,51.7,61.6,55.212s19.161,1.6,22.673,2.623C77.694,54.9,67.868,51.967,61.911,51.7Z" transform="translate(-40.438 -34.806)"/>
            <path class="b" d="M76.144,47a20.28,20.28,0,0,1-.044,2.178,94.794,94.794,0,0,1,13.826,4.4C84.547,50.512,81.257,48.111,76.144,47Z" transform="translate(-48.492 -32.196)"/>
            <path class="b" d="M73.856,67.919l-.089-.489a53.645,53.645,0,0,0-14.8,5.513c-1.111-2.223-2.178-3.868-2.667-4.668a42.714,42.714,0,0,1,17.338-2.445l.178-1.067s-27.741-4.4-35.344-2.667a72.844,72.844,0,0,1,7.024,9.158c.222.4.445.8.667,1.245A45.377,45.377,0,0,0,34.2,82.367l.4.311A44.925,44.925,0,0,1,46.381,72.9a59.45,59.45,0,0,1,2.979,6.846,38.776,38.776,0,0,0-6.8,7.913l.445.267a39.69,39.69,0,0,1,6.535-7.558,59.328,59.328,0,0,1,2.223,8.625l.489-.089a56.768,56.768,0,0,0-2.312-8.936,50.077,50.077,0,0,1,8.847-6.357A39.628,39.628,0,0,1,62.7,85.479l.489-.089a41.233,41.233,0,0,0-4-12.048A54.912,54.912,0,0,1,73.856,67.919ZM49.938,79.3l-.178.178a52.474,52.474,0,0,0-3.023-6.846,55.021,55.021,0,0,1,9.069-4.179,42.257,42.257,0,0,1,2.712,4.712A51.322,51.322,0,0,0,49.938,79.3Z" transform="translate(-25.22 -40.355)"/>
            <path class="b" d="M23.6,79.638a5.87,5.87,0,0,0,2.267-.222,6.02,6.02,0,0,1,3.245-.578,7.594,7.594,0,0,0-2.356,1.111A6.783,6.783,0,0,1,23.6,79.638Z" transform="translate(-19.332 -49.851)"/>
            <path class="b" d="M34.1,87.59a7.651,7.651,0,0,0,2.979-1.2A8.77,8.77,0,0,1,41.3,84.3c-2,1.156-2.089,2.045-2.8,2.445A10.427,10.427,0,0,1,34.1,87.59Z" transform="translate(-25.164 -52.913)"/>
            <path class="b" d="M26.4,82.692a10.193,10.193,0,0,0,2.979-1.423c1.111-.889,1.6-1.645,3.334-2.223a9.37,9.37,0,0,1,5.113-.4,8.276,8.276,0,0,0-4,1.067c-1.556,1.023-1.334,1.467-3.423,2.267A12.272,12.272,0,0,1,26.4,82.692Z" transform="translate(-20.887 -49.66)"/>
        </g>
        <g transform="translate(76.121 31.135)">
            <path class="c" d="M20117.1,21310.9h5.67c6.479,0,10.2,3.6,10.2,9.949,0,6.227-3.6,9.645-10.227,9.645h-5.645Zm5.314,16.352c4.936,0,7.014-1.949,7.014-6.529,0-4.533-2.078-6.58-6.709-6.58h-2.1v13.109Z" transform="translate(-20117.1 -21310.9)"/>
            <path class="c" d="M20187.3,21339.588c0-3.924,2.631-7.189,6.934-7.189,4.279,0,6.938,3.266,6.938,7.189,0,3.9-2.658,7.211-6.937,7.211C20189.932,21346.8,20187.3,21343.51,20187.3,21339.588Zm10.5,0c0-2.279-1.01-4.252-3.568-4.252s-3.566,1.973-3.566,4.252c0,2.252,1.01,4.277,3.566,4.277S20197.8,21341.838,20197.8,21339.588Z" transform="translate(-20169.533 -21326.957)"/>
            <path class="c" d="M20247.9,21339.738c0-3.646,2.152-7.238,6.684-7.238a5.992,5.992,0,0,1,5.973,4.072l-3.189,1.266a2.833,2.833,0,0,0-2.783-2.379c-2.328,0-3.242,2.1-3.242,4.3s.863,4.2,3.242,4.2a2.894,2.894,0,0,0,2.783-2.33l3.061,1.191a5.933,5.933,0,0,1-5.82,4.1C20250.1,21346.879,20247.9,21343.383,20247.9,21339.738Z" transform="translate(-20214.791 -21327.031)"/>
            <path class="c" d="M20307.594,21310.9h3.371v11.34l5.082-5.617h4.535l-5.164,5.365,5.746,8.48h-4.025l-4.049-6.4-2.129,2.354v4.051h-3.367Z" transform="translate(-20259.375 -21310.9)"/>
            <path class="c" d="M20389.436,21338.117v8.656h-1.949v-8.129c0-1.187,0-4.254-3.037-4.254-2.809,0-3.57,2.586-3.57,5.7v6.656h-1.945v-8c0-2.3-.711-4.352-3.117-4.352-2.705,0-3.441,2.555-3.441,5.7v6.656h-1.949l-.023-13.844h1.871v1.691a4.27,4.27,0,0,1,3.824-1.9,4,4,0,0,1,4.074,2.66,4.753,4.753,0,0,1,4.555-2.66C20388.066,21332.7,20389.436,21334.875,20389.436,21338.117Z" transform="translate(-20306.289 -21327.178)"/>
            <path class="c" d="M20470.916,21338.066v8.629h-1.771l-.1-2.127a5.741,5.741,0,0,1-4.961,2.355c-3.014,0-4.785-1.568-4.785-4.254a3.433,3.433,0,0,1,1.6-3.111c1.035-.582,2.527-.836,5.238-.836h2.832v-.656c0-2.408-1.262-3.748-3.594-3.748a4.919,4.919,0,0,0-4.2,2.3l-1.391-1.189a6.642,6.642,0,0,1,5.643-2.834C20468.891,21332.621,20470.916,21334.6,20470.916,21338.066Zm-1.924,2.4v-.2h-2.658c-2.557,0-3.643.178-4.326.707a2.174,2.174,0,0,0-.762,1.8c0,1.543,1.316,2.529,3.391,2.529C20467.3,21345.3,20468.992,21343.432,20468.992,21340.469Z" transform="translate(-20372.682 -21327.107)"/>
            <path class="c" d="M20532.23,21333.2l-.965,1.574a4.56,4.56,0,0,0-1.824-.432c-2.123,0-3.691,1.594-3.691,4.605v7.719h-1.951v-13.846h1.951v2.08a4.448,4.448,0,0,1,4.1-2.3A4.866,4.866,0,0,1,20532.23,21333.2Z" transform="translate(-20420.855 -21327.109)"/>
            <path class="c" d="M20568.5,21310.9h1.949v13.063l6.91-7.34h2.607l-5.037,5.188,5.822,8.658h-2.3l-4.832-7.441-3.166,3.365v4.076h-1.947Z" transform="translate(-20454.246 -21310.9)"/>
            <path class="c" d="M20633.7,21340.268h-10.15c.051,3.037,1.744,4.857,4.455,4.857a5,5,0,0,0,4-1.746l1.344,1.189a6.735,6.735,0,0,1-5.369,2.33c-4.2,0-6.379-3.139-6.379-7.088,0-3.9,2.129-7.213,6.154-7.213,4.25,0,6,3.316,6,6.451A4.715,4.715,0,0,1,20633.7,21340.268Zm-10.125-1.617h8.377c0-.055-.025-.2-.025-.457a3.917,3.917,0,0,0-4.123-3.951c-2.535,0-4.078,1.977-4.229,4.408Z" transform="translate(-20493.904 -21327.107)"/>
            <path class="c" d="M20685.42,21331.455a6.581,6.581,0,0,1-2.1.357c-1.848,0-3.211-1.039-3.211-3.492v-8.963h-2.3v-1.617h2.3v-3.873l1.949-1.469v5.342h3.338v1.617h-3.338v8.705c0,1.346.605,1.977,1.721,1.977a5.556,5.556,0,0,0,1.617-.3Z" transform="translate(-20535.881 -21312.02)"/>
        </g>
    </g>
</svg>