<?xml version="1.0" encoding="utf-8"?>
<!-- Generator: Adobe Illustrator 25.0.0, SVG Export Plug-In . SVG Version: 6.00 Build 0)  -->
<svg version="1.1" id="Camada_1" xmlns="http://www.w3.org/2000/svg" xmlns:xlink="http://www.w3.org/1999/xlink" x="0px" y="0px"
	 viewBox="0 0 765.3 141.7" style="enable-background:new 0 0 765.3 141.7;" xml:space="preserve">
<style type="text/css">
	.st0{fill:#10434F;}
	.st1{fill:#7AB3A2;}
	.st2{fill:#F4F1EB;}
</style>
<g>
	<g>
		<circle class="st0" cx="98.9" cy="70.8" r="55.1"/>
		<path class="st1" d="M98.9,13.5c-31.5,0-57.1,25.6-57.1,57.3s25.6,57.4,57.1,57.4S156,102.5,156,70.8
			C156.1,39.1,130.5,13.5,98.9,13.5z M98.9,122.3c-28.4,0-51.4-23-51.4-51.4s23-51.4,51.4-51.4s51.4,23,51.4,51.4l0,0l0,0
			c0,0,0,0,0,0.1C150.3,99.3,127.3,122.3,98.9,122.3z"/>
		<path class="st1" d="M90.1,51.5l-0.7,7.9c0,0,43.1,3.6,51,5.9C125.6,58.7,103.5,52.1,90.1,51.5z"/>
		<path class="st1" d="M104,46.8c0,0,0.1,2.9-0.1,4.9c3.3,0.6,21.2,5.5,31.1,9.9C122.9,54.7,115.5,49.3,104,46.8z"/>
		<path class="st1" d="M151.2,75.5l-0.2-1.1c-13.2,2.8-24.2,7.4-33.3,12.4c-2.5-5-4.9-8.7-6-10.5c10.9-3.7,24.7-6.8,39-5.5l0.4-2.4
			c0,0-62.4-9.9-79.5-6c5.3,5.6,12,14.7,15.8,20.6c0.5,0.9,1,1.8,1.5,2.8c-2,1.1-15.5,8.7-26.9,22.2l0.9,0.7
			c11.2-13.4,24.6-20.9,26.5-22c2.3,4.5,4.6,9.6,6.7,15.4c-10.4,9.6-15.3,17.7-15.3,17.8l1,0.6c0.1-0.2,4.8-7.8,14.7-17
			c2,5.8,3.7,12.3,5,19.4l1.1-0.2c-1.3-7.4-3.1-14.1-5.2-20.1c5.2-4.7,11.8-9.7,19.9-14.3c3.6,7.2,7.4,16.7,8.8,26.7l1.1-0.2
			c-1.5-10.2-5.4-19.9-9-27.1C127.4,82.7,138.3,78.3,151.2,75.5z M97.4,101.1c-0.1,0.1-0.3,0.3-0.4,0.4c-2.1-5.8-4.4-10.9-6.8-15.4
			c2.4-1.4,10-5.7,20.4-9.4c1.1,1.6,3.5,5.4,6.1,10.6C108.7,91.9,102.2,96.8,97.4,101.1z"/>
		<path class="st1" d="M51.4,80.5c1.2,0.2,3.6,0,5.1-0.5c1.4-0.5,3.9-1.8,7.3-1.3c-3.5,0.8-4.1,2.1-5.3,2.5
			C56.3,81.8,52.4,80.9,51.4,80.5z"/>
		<path class="st1" d="M61.9,91.5c1.7-0.2,5-1.4,6.7-2.7c1.7-1.2,4.6-4,9.5-4.7c-4.5,2.6-4.7,4.6-6.3,5.5
			C69.1,91.2,63.4,91.6,61.9,91.5z"/>
		<path class="st1" d="M54.2,87.8c0,0,4.2-1.2,6.7-3.2s3.6-3.7,7.5-5s8.3-1.8,11.5-0.9c0,0-5.5,0-9,2.4c-3.5,2.3-3,3.3-7.7,5.1
			C58.5,87.9,54.2,87.8,54.2,87.8z"/>
	</g>
	<g>
		<path class="st2" d="M189.1,108.6V34.2h31.2c3.4,0,6.4,0.7,9.3,2.1c2.8,1.4,5.3,3.2,7.3,5.5c2,2.3,3.6,4.9,4.8,7.8
			c1.2,2.9,1.7,5.9,1.7,8.9c0,3.1-0.5,6.2-1.6,9.1c-1.1,2.9-2.6,5.5-4.6,7.8c-2,2.3-4.3,4.1-7.1,5.4c-2.8,1.4-5.8,2-9.2,2h-20.1
			v25.9H189.1z M200.9,72.3h19.4c1.7,0,3.2-0.3,4.6-1c1.4-0.7,2.5-1.7,3.5-2.9c1-1.3,1.7-2.7,2.3-4.4c0.6-1.7,0.8-3.5,0.8-5.6
			c0-2.1-0.3-4-0.9-5.7c-0.6-1.7-1.5-3.1-2.6-4.3c-1.1-1.2-2.4-2.2-3.8-2.8c-1.4-0.7-2.9-1-4.5-1h-18.8V72.3z"/>
		<path class="st2" d="M271.6,109.6c-4.3,0-8.2-0.8-11.7-2.3c-3.5-1.5-6.4-3.6-8.9-6.2c-2.4-2.6-4.3-5.6-5.7-9.1
			c-1.3-3.5-2-7.1-2-10.8s0.7-7.4,2-10.8c1.3-3.5,3.2-6.5,5.7-9.1c2.5-2.6,5.4-4.6,8.9-6.2c3.5-1.5,7.3-2.3,11.6-2.3
			c4.3,0,8.1,0.8,11.6,2.3c3.5,1.5,6.4,3.6,8.9,6.2c2.5,2.6,4.4,5.6,5.7,9.1c1.3,3.5,2,7.1,2,10.8s-0.7,7.4-2,10.8
			c-1.3,3.5-3.2,6.5-5.7,9.1c-2.5,2.6-5.4,4.6-8.9,6.2C279.8,108.9,275.9,109.6,271.6,109.6z M255.3,81.3c0,2.7,0.4,5.1,1.3,7.3
			c0.8,2.2,2,4.2,3.5,5.8c1.5,1.6,3.2,2.9,5.2,3.9c2,0.9,4.1,1.4,6.4,1.4c2.3,0,4.5-0.5,6.4-1.4c2-0.9,3.7-2.3,5.2-3.9
			s2.6-3.6,3.5-5.9c0.8-2.2,1.3-4.7,1.3-7.3c0-2.6-0.4-5-1.3-7.3c-0.8-2.3-2-4.2-3.5-5.9c-1.5-1.7-3.2-3-5.2-3.9
			c-2-0.9-4.1-1.4-6.4-1.4c-2.2,0-4.3,0.5-6.3,1.5c-2,1-3.7,2.3-5.2,4c-1.5,1.7-2.6,3.7-3.5,5.9C255.7,76.3,255.3,78.7,255.3,81.3z"
			/>
		<path class="st2" d="M336.9,63.7c-4.5,0.1-8.4,1.2-11.9,3.1c-3.5,1.9-5.9,4.7-7.4,8.2v33.5h-11.5V53.8h10.7V66
			c1.9-3.8,4.3-6.8,7.4-9.1c3-2.3,6.3-3.5,9.8-3.7c0.7,0,1.3,0,1.7,0c0.5,0,0.9,0,1.2,0.1V63.7z"/>
		<path class="st2" d="M376.8,105.7c-1.5,0.7-3.5,1.5-6.1,2.4c-2.6,0.9-5.3,1.3-8.3,1.3c-1.8,0-3.5-0.2-5.1-0.7
			c-1.6-0.5-3-1.2-4.2-2.2c-1.2-1-2.2-2.3-2.9-3.8c-0.7-1.6-1-3.5-1-5.7V62.7h-7.2v-8.9h7.2v-18h11.5v18h11.9v8.9h-11.9v30.6
			c0.1,2,0.8,3.4,1.8,4.2c1.1,0.9,2.4,1.3,4,1.3c1.6,0,3.1-0.3,4.6-0.8c1.5-0.6,2.5-1,3.2-1.4L376.8,105.7z"/>
		<path class="st2" d="M469.7,108.6h-9.2V78c0-5.7-0.9-10-2.8-12.7c-1.9-2.7-4.6-4.1-8.2-4.1c-3.8,0-7.1,1.3-10.1,4
			c-3,2.7-5.1,6.2-6.3,10.4v32.9h-9.2V78c0-5.9-0.9-10.1-2.7-12.8c-1.8-2.7-4.5-4-8.2-4c-3.7,0-7.1,1.3-10.1,3.9
			c-3,2.6-5.1,6.1-6.4,10.4v33h-9.2V53.9h8.4v11.7c2.2-4.1,5.1-7.2,8.7-9.4c3.6-2.2,7.6-3.3,12.1-3.3c4.6,0,8.3,1.2,11,3.7
			c2.7,2.5,4.3,5.7,5,9.6c4.9-8.9,11.8-13.3,20.9-13.3c3.1,0,5.8,0.6,7.9,1.7c2.1,1.2,3.8,2.8,5.1,4.8c1.3,2.1,2.2,4.5,2.7,7.3
			c0.6,2.8,0.8,5.8,0.8,9.1V108.6z"/>
		<path class="st2" d="M498.1,109.6c-2.6,0-5-0.4-7.2-1.3c-2.2-0.9-4.2-2.1-5.8-3.6c-1.6-1.5-2.9-3.3-3.9-5.4
			c-0.9-2.1-1.4-4.3-1.4-6.8c0-2.5,0.6-4.8,1.7-6.9c1.1-2.1,2.7-3.8,4.8-5.3c2.1-1.5,4.5-2.6,7.3-3.5c2.8-0.8,5.9-1.3,9.3-1.3
			c2.7,0,5.3,0.2,8.1,0.7c2.7,0.5,5.1,1.2,7.2,2V74c0-4.5-1.3-8-3.8-10.5c-2.5-2.5-6.1-3.8-10.7-3.8c-5.5,0-11.3,2.1-17.4,6.4l-3-6
			c7.1-4.8,14.1-7.1,21.3-7.1c7.2,0,12.8,1.9,16.8,5.8c4,3.8,6,9.3,6,16.2v22.3c0,2.2,1,3.3,2.9,3.4v8c-1,0.1-1.8,0.2-2.4,0.3
			c-0.6,0.1-1.3,0.1-2,0.1c-1.8,0-3.3-0.5-4.3-1.6c-1.1-1.1-1.7-2.4-1.9-3.9l-0.2-3.9c-2.4,3.3-5.5,5.8-9.3,7.5
			C506.4,108.8,502.4,109.6,498.1,109.6z M500.6,102.7c3.3,0,6.3-0.6,9.2-1.8c2.8-1.2,5-2.8,6.4-4.9c1.3-1.3,2-2.7,2-4.1v-8.1
			c-4.5-1.7-9.1-2.6-13.9-2.6c-4.6,0-8.4,1-11.3,2.9c-2.9,2-4.3,4.5-4.3,7.6c0,1.5,0.3,3,0.9,4.3c0.6,1.3,1.4,2.5,2.5,3.5
			c1.1,1,2.4,1.7,3.8,2.3C497.3,102.4,498.9,102.7,500.6,102.7z"/>
		<path class="st2" d="M571.1,61.9c-4.6,0.1-8.7,1.3-12.2,3.6c-3.5,2.2-6,5.3-7.5,9.3v33.7h-9.2V53.9h8.6v12.7
			c1.9-3.8,4.4-6.8,7.4-9.2c3.1-2.3,6.4-3.6,9.8-3.9c0.7,0,1.3,0,1.8,0c0.5,0,0.9,0,1.3,0.1V61.9z"/>
		<path class="st2" d="M618.8,108.6l-18.9-26.7l-10.5,9.9v16.9h-9.2V32.1h9.2v50.3L617.5,54h10.2l-21.8,22.6l22.8,32H618.8z"/>
		<path class="st2" d="M658,109.6c-4.1,0-7.9-0.8-11.3-2.3c-3.4-1.5-6.4-3.5-8.8-6.1c-2.4-2.6-4.3-5.6-5.7-9.1s-2-7.1-2-11
			c0-3.8,0.7-7.5,2-10.9s3.3-6.4,5.8-9c2.5-2.6,5.4-4.6,8.9-6.1c3.4-1.5,7.2-2.3,11.3-2.3c4.1,0,7.9,0.8,11.3,2.3
			c3.4,1.5,6.3,3.6,8.6,6.1c2.4,2.6,4.2,5.5,5.5,8.9c1.3,3.4,1.9,6.9,1.9,10.5c0,0.8,0,1.5-0.1,2.1c0,0.6-0.1,1.1-0.2,1.5h-45.4
			c0.2,2.7,0.8,5.2,1.9,7.4c1,2.2,2.4,4.2,4.1,5.8c1.7,1.6,3.6,2.9,5.7,3.8c2.1,0.9,4.4,1.4,6.8,1.4c1.7,0,3.3-0.2,4.9-0.7
			c1.6-0.5,3.1-1.1,4.5-1.8c1.4-0.8,2.6-1.7,3.7-2.8c1.1-1.1,1.9-2.4,2.5-3.8l8,2.2c-0.9,2-2.1,3.9-3.7,5.6
			c-1.6,1.7-3.4,3.1-5.4,4.3c-2.1,1.2-4.3,2.2-6.9,2.9C663.4,109.3,660.8,109.6,658,109.6z M676.8,77.6c-0.2-2.6-0.9-5-1.9-7.2
			c-1.1-2.2-2.4-4.1-4.1-5.6c-1.6-1.5-3.5-2.7-5.7-3.6c-2.2-0.9-4.5-1.3-6.9-1.3c-2.4,0-4.8,0.4-6.9,1.3c-2.2,0.9-4.1,2.1-5.7,3.7
			c-1.6,1.6-3,3.4-4,5.6c-1,2.2-1.6,4.5-1.8,7.1H676.8z"/>
		<path class="st2" d="M723.5,105.9c-0.6,0.3-1.3,0.6-2.2,1c-0.9,0.4-1.9,0.8-3.1,1.2c-1.2,0.4-2.4,0.7-3.8,0.9
			c-1.4,0.2-2.8,0.4-4.2,0.4c-3.4,0-6.3-0.9-8.7-2.8c-2.4-1.9-3.7-4.7-3.7-8.6V61.1h-7.4v-7.2h7.4V35.6h9.2v18.2h12.3v7.2h-12.3v34
			c0.1,2,0.8,3.5,2,4.4c1.2,0.9,2.6,1.4,4.2,1.4c1.8,0,3.5-0.3,5-0.9c1.5-0.6,2.5-1.1,3.1-1.4L723.5,105.9z"/>
	</g>
</g>
</svg>
