<?xml version="1.0" encoding="utf-8"?>
<!-- Generator: Adobe Illustrator 24.1.1, SVG Export Plug-In . SVG Version: 6.00 Build 0)  -->
<svg version="1.1" id="Camada_1" xmlns="http://www.w3.org/2000/svg" xmlns:xlink="http://www.w3.org/1999/xlink" x="0px" y="0px"
	 viewBox="0 0 141.7 141.7" style="enable-background:new 0 0 141.7 141.7;" xml:space="preserve">
<style type="text/css">
	.st0{fill:#10434F;}
	.st1{fill:#4EB9B1;}
</style>
<g>
	<circle class="st0" cx="71.1" cy="71" r="55.1"/>
	<path class="st1" d="M71.1,13.7C39.6,13.7,14,39.3,14,71c0,31.7,25.6,57.4,57.1,57.4s57.1-25.7,57.1-57.4
		C128.3,39.3,102.7,13.7,71.1,13.7z M71.1,122.5c-28.4,0-51.4-23-51.4-51.4s23-51.4,51.4-51.4s51.4,23,51.4,51.4c0,0,0,0,0,0
		s0,0,0,0c0,0,0,0,0,0.1C122.5,99.5,99.5,122.5,71.1,122.5z"/>
	<path class="st1" d="M62.3,51.7l-0.7,7.9c0,0,43.1,3.6,51,5.9C97.8,58.9,75.7,52.3,62.3,51.7z"/>
	<path class="st1" d="M76.2,47c0,0,0.1,2.9-0.1,4.9c3.3,0.6,21.2,5.5,31.1,9.9C95.1,54.9,87.7,49.5,76.2,47z"/>
	<path class="st1" d="M123.4,75.7l-0.2-1.1C110,77.4,99,82,89.9,87c-2.5-5-4.9-8.7-6-10.5c10.9-3.7,24.7-6.8,39-5.5l0.4-2.4
		c0,0-62.4-9.9-79.5-6c5.3,5.6,12,14.7,15.8,20.6c0.5,0.9,1,1.8,1.5,2.8c-2,1.1-15.5,8.7-26.9,22.2l0.9,0.7
		c11.2-13.4,24.6-20.9,26.5-22c2.3,4.5,4.6,9.6,6.7,15.4C57.9,111.9,53,120,53,120.1l1,0.6c0.1-0.2,4.8-7.8,14.7-17
		c2,5.8,3.7,12.3,5,19.4l1.1-0.2c-1.3-7.4-3.1-14.1-5.2-20.1c5.2-4.7,11.8-9.7,19.9-14.3c3.6,7.2,7.4,16.7,8.8,26.7l1.1-0.2
		c-1.5-10.2-5.4-19.9-9-27.1C99.6,82.9,110.5,78.5,123.4,75.7z M69.6,101.3c-0.1,0.1-0.3,0.3-0.4,0.4c-2.1-5.8-4.4-10.9-6.8-15.4
		c2.4-1.4,10-5.7,20.4-9.4c1.1,1.6,3.5,5.4,6.1,10.6C80.9,92.1,74.4,97,69.6,101.3z"/>
	<path class="st1" d="M23.6,80.7c1.2,0.2,3.6,0,5.1-0.5c1.4-0.5,3.9-1.8,7.3-1.3c-3.5,0.8-4.1,2.1-5.3,2.5
		C28.5,82,24.6,81.1,23.6,80.7z"/>
	<path class="st1" d="M34.1,91.7c1.7-0.2,5-1.4,6.7-2.7c1.7-1.2,4.6-4,9.5-4.7c-4.5,2.6-4.7,4.6-6.3,5.5
		C41.3,91.4,35.6,91.8,34.1,91.7z"/>
	<path class="st1" d="M26.4,88c0,0,4.2-1.2,6.7-3.2c2.5-2,3.6-3.7,7.5-5c3.9-1.3,8.3-1.8,11.5-0.9c0,0-5.5,0-9,2.4
		c-3.5,2.3-3,3.3-7.7,5.1C30.7,88.1,26.4,88,26.4,88z"/>
</g>
</svg>
